# xmcd
#
# Track frame offsets:
#	150
#	10920
#	22923
#	36951
#	52355
#	63735
#	76998
#	90174
#	102490
#	114694
#	126730
#	139932
#	151656
#	162559
#	173899
#
# Disc length: 2481 seconds
#
# Revision: 0
# Processed by: cddbd v1.5.2PL0 Copyright (c) Steve Scherf et al.
# Submitted via: dBpowerAMP V4.0
#
DISCID=ce09af0f
DTITLE=Various Artist - Country Bouquet Vol 5
DYEAR=1900
DGENRE=Country
TTITLE0=All I have to do is dream (Everly Brothers)
TTITLE1=I cant stop loving you (Don Gibson)
TTITLE2=Tennessee waltz (Patti Page)
TTITLE3=Making believe (Jim Reeves)
TTITLE4=My happiness (Connie Francis)
TTITLE5=Ballad of Davy Crockett (Tennessee Ernie Ford)
TTITLE6=The hanging tree (Marty Robbins)
TTITLE7=Mendocino (Sir Douglas Quintet)
TTITLE8=What am I living for (Conway Twitty)
TTITLE9=Happy happy birthday Baby (Wanda Jackson)
TTITLE10=A fool such as I (Hank Snow)
TTITLE11=She thinks I still care (George Jones)
TTITLE12=Kisses sweeter than wine (Jimmy Rodgers)
TTITLE13=Dark moon (Gale Storm)
TTITLE14=Your cheatin' heart (Hank Williams)
EXTD=
EXTT0=
EXTT1=
EXTT2=
EXTT3=
EXTT4=
EXTT5=
EXTT6=
EXTT7=
EXTT8=
EXTT9=
EXTT10=
EXTT11=
EXTT12=
EXTT13=
EXTT14=
PLAYORDER=
